<svg data-name="Layer 1" xmlns="http://www.w3.org/2000/svg" viewBox="0 0 1366 768"><defs><linearGradient id="a" x1="223.4" y1="750.87" x2="1168.18" y2="-193.91" gradientTransform="matrix(.94 -.34 -.34 -.94 206.66 970.48)" gradientUnits="userSpaceOnUse"><stop offset="0" stop-color="#00a1bf" stop-opacity=".3"/><stop offset="1" stop-color="#009c79" stop-opacity=".3"/></linearGradient><linearGradient id="b" x1="86.12" y1="853.35" x2="1151.98" y2="-212.5" gradientTransform="matrix(1 0 0 -1 0 768)" gradientUnits="userSpaceOnUse"><stop offset="0" stop-color="#00a1bf" stop-opacity=".3"/><stop offset="1" stop-color="#0447ad" stop-opacity=".3"/></linearGradient></defs><path d="M0 767.5V635c-.38 0-.88-102.82-.5-102.82C99.67 531.67 143.63 360 249.45 367c124.55 8.17 264.42-10.47 379.31-97.78a192.61 192.61 0 0 0 20.18-17.79c60.13-60.8 454.21-439.32 659.81-134.46a198.16 198.16 0 0 1 22.11 43.68l11.19 31.15c7.46 47.66 23.4 90.31 23.45 130.78C1366 768 1393.57 705 1366 767" style="isolation:isolate" opacity=".54" fill="url(#a)"/><path d="M1 1c24.93 23.8 356.41 332.79 681.44 215.52h.11c6.19-3.21 606.27-312.69 682.94 121.94v428.16a.89.89 0 0 1-.89.89H.39a.89.89 0 0 1-.89-.89V1.6A.89.89 0 0 1 .44.76.84.84 0 0 1 1 1z" fill="url(#b)"/><text transform="translate(998 85.6)" font-size="59" fill="#060085" font-family="AvenirNext-Regular,Avenir Next">Cuisine</text></svg>