<svg data-name="Layer 1" xmlns="http://www.w3.org/2000/svg" viewBox="0 0 1366 3000"><defs><linearGradient id="a" x1="138" y1="1942.43" x2="1163.16" y2="917.27" gradientTransform="matrix(-.94 1.34 .34 3.67 797.17 -4891.33)" gradientUnits="userSpaceOnUse"><stop offset="0" stop-color="#00a1bf" stop-opacity=".3"/><stop offset="1" stop-color="#009c79" stop-opacity=".3"/></linearGradient><linearGradient id="b" x1="99.37" y1="1979.65" x2="1165.22" y2="913.81" gradientTransform="matrix(-1 0 0 3.91 1384.89 -4407.89)" gradientUnits="userSpaceOnUse"><stop offset="0" stop-color="#00a1bf" stop-opacity=".3"/><stop offset="1" stop-color="#0447ad" stop-opacity=".3"/></linearGradient></defs><path d="M1379.45 1l-.64 517.81c.38 0 .38 401.82 0 401.82-100.17 1.87 42.21 1401.11-63.57 1373.62-124.51-32.08-280.61-293.07-395.93 48-7.16 21.3-65.65 131-72 156C792.84 2623 282 3538.15 67.56 2541.59c-9.08-53.12-16.44-110.47-21.9-170.72l-11-121.75c-7.23-186.27-23-353-22.82-511.12C13.46-2.7-14.41 243.47 13.46 1.21" style="isolation:isolate" opacity=".54" fill="url(#a)"/><path d="M1361.46 2999.92c-24.81-93.15-354.79-1302.53-680.39-844.09H681c-6.21 12.55-607.78 1222.69-682.35-478v-.62L.69 2.64c0-1.93.4-3.48.89-3.48L1365.79.85c.49 0 .89 1.56.88 3.48L1363 2997.58c0 1.92-.45 3.39-.94 3.29-.25-.04-.45-.38-.6-.95z" fill="url(#b)"/></svg>