<svg id="Layer_1" data-name="Layer 1" xmlns="http://www.w3.org/2000/svg" xmlns:xlink="http://www.w3.org/1999/xlink" viewBox="0 0 1388.64 3000.36"><defs><style>.cls-1,.cls-4{opacity:0.54;isolation:isolate;}.cls-1{fill:url(#linear-gradient);}.cls-2{fill:url(#linear-gradient-2);}.cls-3{font-size:59px;fill:#060085;font-family:AvenirNext-Regular, Avenir Next;}.cls-4{fill:url(#linear-gradient-3);}.cls-5{fill:url(#linear-gradient-4);}</style><linearGradient id="linear-gradient" x1="590.16" y1="2855.7" x2="1550.87" y2="1895" gradientTransform="matrix(0.94, -0.34, -0.34, -0.94, 588.87, 3138.14)" gradientUnits="userSpaceOnUse"><stop offset="0" stop-color="#00a1bf" stop-opacity="0.3"/><stop offset="1" stop-color="#009c79" stop-opacity="0.3"/></linearGradient><linearGradient id="linear-gradient-2" x1="49.08" y1="3052.08" x2="1178.89" y2="1922.27" gradientTransform="matrix(1, 0, 0, -1, 0, 3002)" gradientUnits="userSpaceOnUse"><stop offset="0" stop-color="#00a1bf" stop-opacity="0.3"/><stop offset="1" stop-color="#0447ad" stop-opacity="0.3"/></linearGradient><linearGradient id="linear-gradient-3" x1="444.84" y1="2206.21" x2="1519.29" y2="1131.76" gradientTransform="translate(588.87 -136.99) rotate(20)" xlink:href="#linear-gradient"/><linearGradient id="linear-gradient-4" x1="-314.05" y1="2687.49" x2="1427.69" y2="945.75" gradientTransform="translate(0 -0.85)" xlink:href="#linear-gradient-2"/></defs><title>svg1</title><path class="cls-1" d="M-2,888V734.7c-.38,0-.88-119-.5-119,100.73-.59,144.94-199.19,251.36-191.1,125.25,9.46,265.91-12.11,381.44-113.12a204.54,204.54,0,0,0,20.3-20.58c60.47-70.34,456.77-508.26,663.52-155.56a244.27,244.27,0,0,1,22.24,50.53l11.25,36c7.5,55.14,23.53,104.48,23.58,151.3.51,515.32,28.23,442.43.51,514.16" transform="translate(4.64 0.36)"/><path class="cls-2" d="M-1,1.21c25.07,27.54,358.42,385,685.28,249.34h.11c6.22-3.71,609.68-361.75,686.78,141.08a.54.54,0,0,1,0,.18V887a1,1,0,0,1-.89,1H-1.6a1,1,0,0,1-.9-1h0V1.91a1,1,0,0,1,.94-1A.94.94,0,0,1-1,1.21Z" transform="translate(4.64 0.36)"/><text class="cls-3" transform="translate(1000.47 85.96)">Cuisine</text><path class="cls-4" d="M1371.68,889c27.76,170.56,0-2.75-.51,1222.58-.05,111.33-16.1,228.65-23.61,359.76l-11.27,85.7A1110.27,1110.27,0,0,1,1314,2677.24c-207,838.65-603.92-202.64-664.48-369.89Q640,2281,629.22,2258.41c-115.71-240.19-256.57-291.47-382-269C140.65,2008.68,96.38,1536.42-4.5,1535c-.38,0,.12-282.85.5-282.85V887.67" transform="translate(4.64 0.36)"/><path class="cls-5" d="M-3.56,2996.93c-.49.07-.91-1-.94-2.32V890.09h0c0-1.35.4-2.45.9-2.45H1370.27c.49,0,.89,1.1.89,2.45v1177.4a3.23,3.23,0,0,1,0,.44C1294,3263.57,689.62,2412.21,683.39,2403.38h-.11C356,2080.78,22.12,2930.79-3,2996.26-3.14,2996.66-3.34,2996.9-3.56,2996.93Z" transform="translate(4.64 0.36)"/></svg>