<svg id="Layer_1" data-name="Layer 1" xmlns="http://www.w3.org/2000/svg" xmlns:xlink="http://www.w3.org/1999/xlink" viewBox="0 0 1020.47 13042.2"><defs><style>.cls-1,.cls-4{opacity:0.54;isolation:isolate;}.cls-1{fill:url(#linear-gradient);}.cls-2{fill:url(#linear-gradient-2);}.cls-3{font-size:113px;fill:#312783;font-family:MyriadPro-Regular, Myriad Pro;}.cls-4{fill:url(#linear-gradient-3);}.cls-5{fill:url(#linear-gradient-4);}</style><linearGradient id="linear-gradient" x1="1608.22" y1="11216.81" x2="2907.72" y2="9917.31" gradientTransform="matrix(0.94, -0.34, -0.34, -0.94, 2295.6, 12817.49)" gradientUnits="userSpaceOnUse"><stop offset="0" stop-color="#00a1bf" stop-opacity="0.3"/><stop offset="1" stop-color="#009c7a" stop-opacity="0.3"/></linearGradient><linearGradient id="linear-gradient-2" x1="-888.21" y1="12148" x2="1546.15" y2="9713.64" gradientTransform="matrix(1, 0, 0, -1, 0, 13044)" gradientUnits="userSpaceOnUse"><stop offset="0" stop-color="#00a1bf" stop-opacity="0.3"/><stop offset="1" stop-color="#1f4c9c" stop-opacity="0.3"/></linearGradient><linearGradient id="linear-gradient-3" x1="-79.16" y1="9494.87" x2="2793.55" y2="6622.15" gradientTransform="translate(2295.6 225.67) rotate(20)" xlink:href="#linear-gradient"/><linearGradient id="linear-gradient-4" x1="-2291.46" y1="10737.52" x2="2802.5" y2="5643.56" gradientTransform="translate(0 -0.85)" xlink:href="#linear-gradient-2"/></defs><title>Artboard 1</title><path class="cls-1" d="M-3,3862V3195.2c-.28,0-.65-517.08-.37-517.08,74-2.56,106.51-865.89,184.72-830.68,92,41.08,195.41-52.66,280.31-491.74,5.27-27.42,10.26-57.31,14.91-89.46C521,960.48,812.24-943.09,964.18,590c6.76,68.35,12.25,142.13,16.34,219.67l8.27,156.65c5.51,239.68,17.29,454.17,17.33,657.69.37,2240,20.75,1923.18.37,2235Z"/><path class="cls-2" d="M2.68,6.83C21.19,126.52,267.24,1680.42,508.51,1090.68h.08c4.6-16.15,450-1572.51,506.94,613.23v2153.2c0,2.48-.3,4.48-.66,4.48H2.23c-.36,0-.66-2-.66-4.48h0V9.85c0-2.47.33-4.37.69-4.24C2.42,5.67,2.57,6.1,2.68,6.83Z"/><text class="cls-3" transform="translate(585.43 342.42)">cuisine</text><path class="cls-4" d="M1011.42,3866.13c20.4,741.4,0-12-.37,5314.38,0,483.94-11.84,993.95-17.36,1563.86l-8.28,372.5c-4.1,184.35-9.59,359.8-16.36,522.32-152.16,3645.52-443.81-880.82-488.31-1607.87-4.67-76.45-9.66-147.53-14.94-212.73-85-1044.06-188.54-1267-280.72-1169.26C106.77,8733,74.23,6680.21.1,6674.11c-.28,0,.09-1229.52.37-1229.52V3860.15"/><path class="cls-5" d="M.8,13028.85c-.37.31-.68-4.19-.7-10.06V3870.67h0c0-5.87.3-10.64.67-10.64h1019c.37,0,.67,4.77.67,10.64V8990.61C963.2,14187.92,515,10487.16,510.33,10448.77h-.09C267.45,9046.46,19.84,12741.36,1.22,13026A8.51,8.51,0,0,1,.8,13028.85Z"/></svg>